<?xml version="1.0" standalone="no"?>
<!DOCTYPE svg PUBLIC "-//W3C//DTD SVG 20010904//EN"
 "http://www.w3.org/TR/2001/REC-SVG-20010904/DTD/svg10.dtd">
<svg version="1.0" xmlns="http://www.w3.org/2000/svg"
 width="990.000000pt" height="332.000000pt" viewBox="0 0 990.000000 332.000000"
 preserveAspectRatio="xMidYMid meet">

<g transform="translate(0.000000,332.000000) scale(0.100000,-0.100000)"
fill="#000000" stroke="none">
<path d="M3780 1630 c0 -773 3 -1170 10 -1170 7 0 10 397 10 1170 0 773 -3
1170 -10 1170 -7 0 -10 -397 -10 -1170z"/>
<path d="M715 2338 c2 -183 4 -350 4 -370 l1 -38 1120 0 1120 0 0 75 0 75
-750 0 -751 0 3 73 3 72 748 3 747 2 0 75 0 75 -750 0 -751 0 3 73 3 72 748 3
747 2 0 70 0 70 -1124 0 -1123 0 2 -332z m409 162 l28 -79 101 -3 101 -3 -77
-50 c-42 -27 -77 -56 -77 -62 0 -7 11 -43 25 -80 14 -36 24 -70 23 -74 -2 -4
-38 16 -80 43 l-78 50 -77 -50 c-43 -27 -79 -47 -81 -43 -1 4 9 38 23 74 14
37 25 73 25 80 0 6 -35 35 -77 62 l-77 50 101 3 101 3 28 79 c16 44 31 80 34
80 3 0 18 -36 34 -80z"/>
<path d="M4273 2535 c-38 -16 -53 -42 -53 -89 0 -48 25 -71 97 -91 93 -26 114
-37 124 -62 10 -28 -2 -57 -31 -73 -36 -19 -114 -12 -153 14 -19 13 -38 22
-41 18 -16 -16 -1 -35 40 -54 69 -30 167 -23 200 16 16 18 24 40 24 66 0 46
-29 74 -94 91 -109 28 -136 44 -136 80 0 11 11 31 25 44 30 31 95 34 142 6 31
-19 43 -18 43 4 0 18 -67 45 -113 45 -23 -1 -56 -7 -74 -15z"/>
<path d="M4550 2365 l0 -185 125 0 c104 0 125 2 125 15 0 12 -19 15 -110 15
l-110 0 0 70 0 69 92 3 c60 2 93 7 95 15 3 9 -21 13 -89 15 l-93 3 0 65 0 65
103 3 c82 2 102 6 102 17 0 12 -21 15 -120 15 l-120 0 0 -185z"/>
<path d="M4930 2528 c-87 -47 -117 -155 -70 -252 29 -60 70 -89 135 -94 60 -5
117 17 142 55 18 28 9 43 -15 25 -56 -41 -81 -52 -113 -52 -46 0 -99 35 -121
80 -37 72 -14 164 51 207 55 37 90 31 173 -29 21 -15 36 -3 22 19 -38 61 -132
79 -204 41z"/>
<path d="M5220 2365 c0 -155 2 -185 15 -185 11 0 15 16 17 68 l3 67 52 3 52 3
46 -70 c31 -49 51 -71 65 -71 18 0 15 8 -23 67 l-43 67 38 37 c31 29 38 43 38
73 0 91 -48 126 -175 126 l-85 0 0 -185z m188 139 c33 -23 45 -60 31 -101 -14
-44 -34 -53 -118 -53 l-71 0 0 85 0 85 68 0 c46 0 75 -5 90 -16z"/>
<path d="M5560 2365 l0 -185 120 0 c100 0 120 3 120 15 0 12 -18 15 -105 15
l-105 0 0 70 0 70 90 0 c73 0 90 3 90 15 0 12 -17 15 -90 15 l-90 0 0 70 0 70
105 0 c87 0 105 3 105 15 0 13 -20 15 -120 15 l-120 0 0 -185z"/>
<path d="M5840 2535 c0 -12 14 -15 65 -15 l65 0 0 -170 c0 -143 2 -170 15
-170 12 0 15 28 17 168 l3 167 68 3 c51 2 67 6 67 17 0 13 -25 15 -150 15
-127 0 -150 -2 -150 -15z"/>
<path d="M6267 2538 c-3 -7 -37 -89 -76 -182 -39 -93 -71 -171 -71 -173 0 -1
8 -3 19 -3 13 0 24 14 36 48 27 71 29 72 115 72 l78 0 24 -60 c16 -43 28 -60
41 -60 22 0 25 -9 -61 200 -65 155 -90 194 -105 158z m58 -123 c15 -38 29 -76
32 -82 4 -10 -14 -13 -72 -13 -42 0 -75 4 -73 8 2 4 18 45 37 91 19 45 37 79
41 74 4 -4 19 -39 35 -78z"/>
<path d="M6510 2366 c0 -156 2 -186 15 -186 11 0 15 16 17 68 l3 67 52 3 52 3
47 -70 c31 -47 53 -71 66 -71 13 0 17 4 12 13 -4 6 -23 35 -41 64 -39 61 -40
69 -13 78 28 9 50 56 50 104 0 31 -7 49 -29 73 -29 33 -31 33 -130 36 l-101 4
0 -186z m202 124 c26 -27 30 -36 25 -67 -10 -61 -29 -73 -119 -73 l-78 0 0 78
c0 43 3 82 7 85 3 4 35 7 70 7 59 0 67 -3 95 -30z"/>
<path d="M6850 2365 c0 -178 1 -185 20 -185 19 0 20 7 20 185 0 178 -1 185
-20 185 -19 0 -20 -7 -20 -185z"/>
<path d="M7033 2403 c-34 -82 -69 -165 -77 -185 -15 -36 -15 -38 2 -38 13 0
26 18 45 60 l26 61 81 -3 82 -3 22 -55 c13 -32 29 -56 39 -58 9 -2 17 0 17 5
0 4 -33 88 -72 185 -51 123 -78 178 -89 178 -10 0 -34 -46 -76 -147z m116 4
c17 -43 31 -80 31 -82 0 -3 -31 -5 -70 -5 -38 0 -70 4 -70 9 0 23 64 171 71
164 4 -4 21 -43 38 -86z"/>
<path d="M7450 2365 l0 -185 83 0 c107 0 160 24 195 90 20 38 23 55 19 107 -9
123 -72 173 -215 173 l-82 0 0 -185z m190 136 c49 -26 71 -69 71 -135 0 -107
-51 -156 -163 -156 l-68 0 0 148 c0 82 3 152 7 155 14 15 119 7 153 -12z"/>
<path d="M7820 2365 l0 -185 125 0 c104 0 125 2 125 15 0 12 -18 15 -105 15
l-105 0 0 70 0 70 90 0 c73 0 90 3 90 15 0 12 -17 15 -90 15 l-90 0 0 70 0 70
100 0 c82 0 100 3 100 15 0 13 -20 15 -120 15 l-120 0 0 -185z"/>
<path d="M4585 1916 c-47 -21 -70 -52 -70 -97 0 -48 30 -81 107 -118 61 -30
70 -58 26 -79 -21 -10 -37 -10 -73 -1 -52 13 -51 14 -60 -23 -6 -24 -3 -29 20
-38 14 -5 51 -10 81 -10 91 0 144 41 144 110 0 50 -23 77 -96 112 -64 31 -78
50 -52 76 15 15 72 16 98 2 17 -9 21 -6 28 22 8 30 6 34 -17 45 -34 16 -99 15
-136 -1z"/>
<path d="M5944 1924 c-36 -8 -102 -72 -114 -110 -18 -53 -9 -158 16 -191 41
-55 70 -68 149 -68 87 0 118 17 153 85 45 89 18 220 -55 263 -32 18 -111 29
-149 21z m105 -88 c67 -71 30 -226 -54 -226 -84 0 -123 162 -54 231 27 27 80
25 108 -5z"/>
<path d="M7281 1903 c-76 -40 -104 -92 -99 -185 6 -110 56 -160 168 -166 101
-6 118 0 112 39 -5 31 -5 31 -51 26 -85 -10 -143 35 -145 111 -2 89 54 140
144 129 47 -6 48 -5 54 25 3 17 4 33 2 36 -3 2 -33 6 -68 9 -55 4 -70 1 -117
-24z"/>
<path d="M4230 1735 l0 -185 115 0 115 0 0 35 0 35 -75 0 -75 0 0 45 0 45 70
0 70 0 0 35 0 35 -70 0 -70 0 0 40 0 40 75 0 75 0 0 30 0 30 -115 0 -115 0 0
-185z"/>
<path d="M4792 1888 c3 -32 5 -33 51 -36 l47 -3 0 -150 0 -149 45 0 45 0 0
150 0 150 50 0 50 0 0 35 0 35 -146 0 -145 0 3 -32z"/>
<path d="M5161 1888 c-31 -101 -101 -330 -101 -334 0 -2 20 -4 45 -4 29 0 45
4 45 13 0 6 5 29 11 50 10 37 10 37 63 37 l52 0 15 -47 c15 -47 15 -48 61 -51
l46 -3 -57 183 -57 183 -56 3 c-56 3 -56 3 -67 -30z m99 -165 c0 -8 -14 -13
-39 -13 -39 0 -40 1 -31 28 5 15 14 47 21 72 l12 45 18 -60 c10 -33 19 -66 19
-72z"/>
<path d="M5450 1736 l0 -186 84 0 c127 0 189 29 222 103 23 51 24 130 1 177
-9 19 -34 46 -54 60 -32 22 -49 25 -145 28 l-108 4 0 -186z m200 99 c31 -28
45 -88 32 -133 -16 -53 -49 -81 -105 -88 l-47 -7 0 128 0 128 50 -5 c29 -3 59
-13 70 -23z"/>
<path d="M6340 1735 l0 -185 88 0 c132 1 187 27 223 105 43 93 12 201 -71 243
-37 18 -60 22 -142 22 l-98 0 0 -185z m185 110 c38 -19 55 -51 55 -106 0 -76
-51 -129 -125 -129 l-25 0 0 125 0 125 31 0 c17 0 46 -7 64 -15z"/>
<path d="M6772 1813 c-18 -60 -43 -143 -56 -185 l-24 -78 42 0 c42 0 43 1 57
48 l15 47 53 0 54 0 14 -47 14 -48 45 0 c33 0 45 4 41 13 -2 6 -28 90 -57 185
l-54 172 -56 0 -56 0 -32 -107z m104 -20 c9 -32 19 -64 21 -70 4 -9 -7 -13
-37 -13 -39 0 -42 2 -36 23 4 12 12 43 18 70 6 26 13 47 14 47 2 0 11 -26 20
-57z"/>
<path d="M7522 1783 c5 -155 16 -191 70 -219 22 -12 49 -15 94 -12 114 7 144
61 144 263 l0 105 -45 0 -45 0 0 -135 c0 -122 -2 -137 -20 -155 -11 -11 -31
-20 -45 -20 -14 0 -34 9 -45 20 -18 18 -20 33 -20 155 l0 135 -46 0 -46 0 4
-137z"/>
<path d="M7900 1735 l0 -185 115 0 115 0 0 35 0 35 -75 0 -75 0 0 150 0 150
-40 0 -40 0 0 -185z"/>
<path d="M8100 1885 l0 -35 50 0 50 0 0 -150 0 -150 40 0 40 0 0 150 0 150 50
0 50 0 0 35 0 35 -140 0 -140 0 0 -35z"/>
<path d="M8431 1793 c0 -149 11 -188 58 -220 45 -31 132 -32 179 -3 51 31 62
70 62 220 l0 130 -40 0 -40 0 0 -130 c0 -126 -1 -132 -25 -155 -29 -30 -55
-32 -86 -6 -23 18 -24 26 -27 155 l-4 136 -39 0 -39 0 1 -127z"/>
<path d="M8810 1736 l0 -186 40 0 40 0 0 75 c0 72 1 75 23 75 33 0 52 -25 71
-92 l17 -58 43 0 44 0 -20 68 c-11 37 -28 75 -37 85 -17 18 -17 20 10 47 38
38 40 96 5 137 -23 27 -28 28 -130 31 l-106 4 0 -186z m168 112 c17 -17 15
-54 -4 -72 -8 -9 -31 -16 -50 -16 l-34 0 0 50 0 50 38 0 c21 0 43 -5 50 -12z"/>
<path d="M9227 1913 c-8 -13 -107 -340 -107 -352 0 -6 17 -11 40 -11 38 0 40
1 53 48 l14 47 54 0 53 0 15 -47 c14 -48 15 -48 58 -48 24 0 43 3 43 6 0 4
-21 72 -46 153 -25 80 -50 161 -55 179 -10 31 -12 32 -64 32 -30 0 -56 -3 -58
-7z m72 -123 c7 -25 15 -53 17 -62 5 -15 -1 -18 -36 -18 -30 0 -41 4 -37 13 2
6 10 38 17 70 15 64 21 63 39 -3z"/>
<path d="M720 1710 l0 -70 1120 0 1120 0 0 70 0 70 -1120 0 -1120 0 0 -70z"/>
<path d="M720 1410 l0 -70 1120 0 1120 0 0 70 0 70 -1120 0 -1120 0 0 -70z"/>
<path d="M4860 1185 l0 -155 35 0 35 0 0 155 0 155 -35 0 -35 0 0 -155z"/>
<path d="M7010 1185 l0 -155 35 0 35 0 0 155 0 155 -35 0 -35 0 0 -155z"/>
<path d="M4494 1316 c-10 -26 4 -48 28 -44 17 2 23 10 23 28 0 18 -6 26 -23
28 -13 2 -25 -3 -28 -12z"/>
<path d="M4608 1180 l-3 -150 28 0 c15 0 27 5 27 10 0 6 13 4 30 -5 64 -33
130 21 130 106 0 40 -5 55 -25 74 -26 27 -72 33 -106 15 -18 -10 -19 -7 -19
45 0 54 0 55 -29 55 l-30 0 -3 -150z m142 -16 c14 -37 12 -52 -10 -74 -24 -24
-34 -25 -54 -4 -19 18 -21 75 -4 92 21 21 58 14 68 -14z"/>
<path d="M4991 1317 c-18 -23 -2 -49 28 -45 20 2 26 8 26 28 0 29 -34 40 -54
17z"/>
<path d="M6595 1300 c-15 -29 -15 -30 8 -30 14 0 32 12 45 30 l23 30 -30 0
c-24 0 -34 -7 -46 -30z"/>
<path d="M6760 1211 c0 -65 -3 -133 -6 -150 -6 -29 -5 -31 25 -31 17 0 31 5
31 10 0 6 13 4 30 -5 85 -44 164 70 115 164 -8 16 -22 31 -30 35 -27 10 -80 7
-93 -6 -9 -9 -12 1 -12 45 0 57 0 57 -30 57 l-30 0 0 -119z m140 -47 c16 -42
-8 -94 -44 -94 -30 0 -49 83 -24 108 21 21 58 14 68 -14z"/>
<path d="M7141 1317 c-18 -23 -2 -49 28 -45 20 2 26 8 26 28 0 29 -34 40 -54
17z"/>
<path d="M8890 1273 c0 -44 -3 -54 -12 -45 -7 7 -28 12 -48 12 -100 0 -124
-171 -30 -210 27 -11 37 -11 66 3 19 9 34 12 34 7 0 -6 14 -10 30 -10 l30 0 0
150 0 150 -35 0 -35 0 0 -57z m-12 -95 c13 -13 16 -67 4 -84 -11 -17 -35 -22
-54 -12 -12 6 -18 21 -18 46 0 40 14 62 40 62 9 0 21 -5 28 -12z"/>
<path d="M9014 1315 c-10 -25 4 -45 30 -45 27 0 42 26 25 46 -15 19 -48 18
-55 -1z"/>
<path d="M4230 1176 l0 -144 30 -7 c60 -13 161 16 174 50 13 36 6 74 -18 93
-24 18 -24 19 -5 35 28 25 25 71 -7 96 -22 17 -41 21 -100 21 l-74 0 0 -144z
m131 78 c11 -14 10 -19 -10 -35 -38 -31 -61 -25 -61 16 0 32 3 35 29 35 16 0
35 -7 42 -16z m-17 -104 c51 -19 25 -80 -33 -80 -18 0 -21 6 -21 38 0 54 8 60
54 42z"/>
<path d="M6260 1175 l0 -145 30 0 c29 0 30 1 30 49 l0 48 46 6 c60 6 94 38 94
88 0 21 -3 45 -6 54 -11 28 -60 45 -129 45 l-65 0 0 -145z m128 83 c31 -31 3
-78 -47 -78 -18 0 -21 6 -21 45 0 43 1 45 28 45 15 0 33 -5 40 -12z"/>
<path d="M7780 1175 l0 -145 70 0 c74 0 123 17 134 45 13 36 6 74 -18 93 -24
18 -24 19 -5 35 28 25 25 71 -7 96 -22 17 -41 21 -100 21 l-74 0 0 -145z m131
79 c11 -14 10 -19 -10 -35 -38 -31 -61 -25 -61 16 0 32 3 35 29 35 16 0 35 -7
42 -16z m-17 -104 c51 -19 25 -80 -33 -80 -18 0 -21 6 -21 38 0 54 8 60 54 42z"/>
<path d="M5390 1291 c-15 -4 -26 -15 -28 -29 -2 -12 -8 -22 -13 -22 -5 0 -9
-11 -9 -25 0 -14 4 -25 9 -25 5 0 11 -30 13 -66 3 -55 8 -70 28 -86 34 -28 74
-20 78 15 3 22 -1 27 -17 27 -19 0 -21 6 -21 55 0 48 2 55 20 55 15 0 20 7 20
25 0 18 -5 25 -20 25 -16 0 -20 7 -20 30 0 32 -1 32 -40 21z"/>
<path d="M9163 1293 c-16 -3 -23 -11 -23 -29 0 -15 -6 -24 -15 -24 -9 0 -15
-9 -15 -25 0 -16 6 -25 15 -25 12 0 15 -14 15 -63 0 -78 13 -99 66 -101 35 -1
39 2 42 26 3 21 -1 27 -20 30 -20 3 -23 9 -26 56 -3 50 -2 52 22 52 21 0 26 5
26 25 0 20 -5 25 -25 25 -21 0 -25 5 -25 30 0 17 -3 29 -7 29 -5 -1 -18 -4
-30 -6z"/>
<path d="M4490 1135 l0 -105 30 0 30 0 0 105 0 105 -30 0 -30 0 0 -105z"/>
<path d="M4980 1135 l0 -105 35 0 35 0 0 105 0 105 -35 0 -35 0 0 -105z"/>
<path d="M5127 1216 c-59 -55 -40 -156 35 -184 46 -18 82 -10 119 28 24 23 29
37 29 75 0 38 -5 52 -29 76 -40 39 -114 42 -154 5z m103 -31 c6 -8 12 -30 12
-50 0 -20 -6 -42 -12 -50 -17 -21 -47 -19 -60 4 -32 62 19 145 60 96z"/>
<path d="M5547 1229 c-50 -29 -62 -120 -22 -168 43 -51 171 -53 158 -3 -4 16
-11 19 -42 15 -27 -4 -43 0 -61 16 l-25 20 74 1 74 0 -6 41 c-8 58 -40 89 -91
89 -23 0 -49 -5 -59 -11z m81 -41 c21 -21 13 -28 -28 -28 -38 0 -40 2 -30 20
12 22 40 26 58 8z"/>
<path d="M5781 1226 c-46 -26 -65 -95 -40 -150 16 -34 72 -60 117 -53 42 7 43
8 36 33 -4 15 -12 20 -28 17 -31 -6 -68 27 -68 60 0 38 19 57 58 57 19 0 34 4
34 9 0 5 3 16 6 25 5 13 -2 16 -42 16 -27 -1 -60 -7 -73 -14z"/>
<path d="M5951 1231 c-28 -18 -5 -36 44 -36 64 0 67 -18 6 -34 -58 -15 -74
-31 -74 -73 0 -42 36 -72 78 -63 16 3 48 6 70 5 l40 -1 -3 85 c-4 107 -19 126
-95 126 -29 0 -58 -4 -66 -9z m97 -128 c-2 -22 -9 -29 -30 -31 -22 -3 -28 1
-28 17 0 20 24 40 48 41 9 0 12 -10 10 -27z"/>
<path d="M6500 1165 c0 -82 18 -134 48 -137 33 -3 67 4 81 15 11 9 15 9 18 0
3 -7 16 -13 29 -13 24 0 24 1 24 105 l0 105 -30 0 -29 0 -3 -71 c-3 -75 -17
-99 -52 -86 -13 5 -16 21 -16 82 l0 75 -35 0 -35 0 0 -75z"/>
<path d="M7130 1135 l0 -105 35 0 35 0 0 105 0 105 -35 0 -35 0 0 -105z"/>
<path d="M7278 1211 c-29 -26 -33 -36 -33 -79 0 -39 5 -56 24 -76 27 -29 68
-40 112 -31 24 5 29 11 27 28 -2 17 -9 21 -26 19 -39 -6 -72 23 -72 63 0 37
20 55 63 55 22 0 37 16 37 41 0 5 -22 9 -50 9 -41 0 -56 -5 -82 -29z"/>
<path d="M7462 1232 c-7 -5 -10 -16 -7 -24 5 -12 19 -16 52 -15 55 2 69 -18
19 -27 -50 -10 -86 -42 -86 -77 0 -57 60 -87 108 -53 12 8 22 10 22 5 0 -6 14
-11 30 -11 l30 0 0 64 c0 73 -14 122 -40 136 -22 12 -110 13 -128 2z m96 -129
c-2 -20 -9 -29 -26 -31 -30 -5 -42 26 -17 44 31 23 47 17 43 -13z"/>
<path d="M8065 1217 c-32 -27 -44 -92 -25 -136 26 -65 170 -86 170 -26 0 21
-4 23 -39 18 -38 -5 -81 9 -81 27 0 5 30 10 68 12 l67 3 -2 39 c-4 56 -35 86
-89 86 -30 0 -51 -7 -69 -23z m95 -37 c10 -18 8 -20 -30 -20 -41 0 -49 7 -28
28 18 18 46 14 58 -8z"/>
<path d="M8270 1135 l0 -105 30 0 30 0 0 63 c0 69 15 101 46 95 16 -3 19 -13
22 -81 l3 -77 35 0 36 0 -3 84 c-3 65 -8 89 -23 105 -21 23 -65 28 -99 10 -16
-9 -22 -9 -25 0 -2 6 -15 11 -28 11 -24 0 -24 -1 -24 -105z"/>
<path d="M8547 1216 c-48 -44 -48 -123 -1 -167 21 -19 36 -24 84 -24 65 0 75
5 66 32 -5 15 -14 18 -44 15 -27 -3 -45 2 -62 17 l-25 20 73 1 72 0 0 30 c0
37 -23 85 -45 94 -38 14 -92 6 -118 -18z m91 -28 c21 -21 13 -28 -28 -28 -38
0 -40 2 -30 20 12 22 40 26 58 8z"/>
<path d="M9010 1135 l0 -105 35 0 35 0 0 105 0 105 -35 0 -35 0 0 -105z"/>
<path d="M9312 1215 c-33 -28 -44 -71 -30 -121 11 -41 51 -67 106 -68 37 -1
48 4 73 32 41 46 41 111 0 153 -40 39 -105 41 -149 4z m102 -37 c19 -27 20
-48 4 -83 -22 -49 -78 -23 -78 37 0 29 26 68 45 68 8 0 21 -10 29 -22z"/>
<path d="M771 1202 c-53 -53 -46 -148 14 -188 34 -22 106 -22 139 0 21 13 26
25 26 56 l0 40 -50 0 c-27 0 -50 -4 -50 -10 0 -5 16 -10 35 -10 30 0 35 -3 35
-23 0 -47 -81 -62 -125 -24 -22 18 -27 31 -27 71 0 56 19 82 69 92 26 5 37 1
58 -20 29 -29 45 -33 45 -12 0 27 -50 56 -97 56 -35 0 -50 -6 -72 -28z"/>
<path d="M1019 1201 c-28 -28 -34 -51 -29 -111 4 -58 71 -107 128 -94 87 21
117 151 47 212 -40 34 -108 31 -146 -7z m126 -16 c20 -19 25 -34 25 -74 0 -42
-4 -53 -26 -70 -15 -12 -37 -21 -49 -21 -12 0 -34 9 -49 21 -22 17 -26 28 -26
73 0 38 5 57 18 68 39 34 75 35 107 3z"/>
<path d="M1239 1188 c10 -24 30 -76 45 -115 19 -51 33 -73 45 -73 15 0 40 56
99 218 2 6 -2 12 -11 12 -9 0 -26 -33 -47 -92 -18 -51 -35 -96 -39 -100 -4 -4
-22 37 -41 92 -26 75 -39 100 -52 100 -16 0 -16 -3 1 -42z"/>
<path d="M1460 1115 l0 -115 90 0 c108 0 122 18 18 22 l-73 3 0 40 0 40 63 3
c82 4 80 22 -3 22 l-65 0 0 35 0 35 70 0 c56 0 70 3 70 15 0 12 -16 15 -85 15
l-85 0 0 -115z"/>
<path d="M1680 1115 c0 -96 3 -115 15 -115 11 0 15 12 15 50 0 49 1 50 30 50
33 0 60 -23 85 -69 10 -20 23 -31 36 -31 21 0 21 1 4 28 -10 15 -27 38 -39 51
-15 17 -17 25 -8 28 45 16 57 81 20 107 -15 11 -45 16 -90 16 l-68 0 0 -115z
m134 82 c11 -8 17 -23 14 -38 -3 -22 -8 -24 -60 -27 l-58 -3 0 41 0 40 43 0
c24 0 51 -6 61 -13z"/>
<path d="M1910 1115 c0 -94 3 -115 15 -115 11 0 15 19 17 88 l3 87 59 -87 c39
-58 65 -88 78 -88 16 0 18 10 18 115 0 94 -3 115 -15 115 -11 0 -15 -19 -17
-92 l-3 -92 -60 92 c-84 128 -95 126 -95 -23z"/>
<path d="M2179 1202 c-42 -37 -51 -110 -20 -159 41 -66 149 -62 184 7 61 118
-68 238 -164 152z m122 -21 c33 -33 38 -75 14 -120 -39 -75 -146 -41 -144 46
1 51 10 73 40 89 37 20 58 17 90 -15z"/>
<path d="M2490 1115 l0 -115 64 0 c54 0 70 4 93 24 25 22 28 30 28 91 0 61 -3
69 -28 91 -23 20 -39 24 -93 24 l-64 0 0 -115z m140 65 c14 -14 20 -33 20 -64
0 -59 -22 -84 -82 -92 l-48 -7 0 92 0 91 45 0 c32 0 51 -6 65 -20z"/>
<path d="M2773 1220 c-52 -21 -70 -143 -28 -190 22 -24 73 -40 109 -33 87 17
112 155 39 213 -27 21 -81 26 -120 10z m103 -33 c38 -33 40 -104 5 -141 -52
-55 -131 -16 -131 64 0 50 14 78 43 90 36 14 54 11 83 -13z"/>
<path d="M2482 918 c-14 -14 -16 -38 -4 -38 4 0 13 5 19 11 8 8 20 9 41 1 32
-11 62 0 62 23 0 18 -12 19 -27 4 -8 -8 -17 -8 -31 0 -27 14 -45 14 -60 -1z"/>
<path d="M4674 865 c-10 -25 4 -45 30 -45 27 0 42 26 25 46 -15 19 -48 18 -55
-1z"/>
<path d="M720 729 c0 -140 0 -140 23 -137 21 3 22 9 27 98 l5 95 24 -98 c22
-95 24 -98 50 -95 24 3 28 10 53 103 l26 100 1 -102 c1 -103 1 -103 26 -103
l25 0 0 140 0 140 -39 0 c-39 0 -40 0 -55 -55 -9 -30 -19 -68 -22 -85 -4 -17
-10 -32 -13 -34 -4 -3 -17 36 -30 85 l-23 89 -39 0 -39 0 0 -141z"/>
<path d="M1117 863 c-3 -5 -18 -40 -32 -78 -15 -39 -38 -98 -51 -132 l-24 -63
29 0 c25 0 31 6 41 35 11 34 13 35 66 35 52 0 54 -1 68 -35 12 -27 21 -35 40
-35 15 0 26 6 25 13 0 6 -24 68 -52 137 -47 112 -55 125 -79 128 -14 2 -28 -1
-31 -5z m62 -150 c1 -8 -12 -13 -35 -13 -25 0 -35 4 -31 13 2 6 10 29 18 50
l14 39 17 -39 c9 -21 17 -44 17 -50z"/>
<path d="M1320 731 l0 -141 25 0 c24 0 25 3 25 60 0 51 3 60 18 60 19 0 54
-33 91 -87 17 -25 30 -33 52 -33 16 0 29 3 29 8 0 4 -19 32 -41 62 -28 35 -37
56 -29 58 48 16 65 82 31 123 -16 20 -29 23 -110 27 l-91 4 0 -141z m155 54
c0 -29 -2 -30 -52 -33 l-53 -3 0 36 0 36 53 -3 c50 -3 52 -4 52 -33z"/>
<path d="M1628 748 c-26 -68 -50 -131 -54 -140 -5 -14 -1 -18 20 -18 21 0 30
7 42 35 14 34 16 35 68 35 53 0 55 -1 66 -35 10 -30 16 -35 41 -35 36 0 38
-10 -29 156 -45 112 -50 119 -78 122 -29 3 -30 1 -76 -120z m112 -45 c0 -2
-16 -3 -35 -3 -40 0 -41 4 -18 61 l16 41 19 -48 c10 -27 18 -50 18 -51z"/>
<path d="M1874 857 c-2 -7 -3 -69 -2 -138 3 -120 4 -124 26 -127 21 -3 22 -1
22 82 0 47 3 86 8 86 4 0 30 -37 57 -83 41 -67 55 -83 78 -85 l27 -3 0 140 0
141 -25 0 c-24 0 -24 -2 -27 -90 l-3 -90 -55 90 c-43 71 -60 90 -78 90 -12 0
-25 -6 -28 -13z"/>
<path d="M2150 730 l0 -141 28 3 c26 3 27 6 30 61 l3 57 54 0 55 0 0 -60 c0
-57 1 -60 25 -60 l25 0 0 140 0 140 -25 0 c-24 0 -25 -3 -25 -55 l0 -55 -54 0
-55 0 -3 53 c-3 48 -5 52 -30 55 l-28 3 0 -141z"/>
<path d="M2503 853 c-3 -10 -26 -67 -49 -128 -24 -60 -44 -115 -44 -122 0 -7
10 -13 23 -13 17 0 28 10 40 35 16 33 19 35 67 35 49 0 52 -2 66 -35 11 -27
20 -35 39 -35 14 0 25 4 25 10 0 5 -23 68 -52 140 -49 124 -53 130 -80 130
-18 0 -31 -6 -35 -17z m67 -140 c0 -8 -13 -13 -34 -13 l-34 0 16 51 17 52 17
-39 c10 -22 18 -45 18 -51z"/>
<path d="M2763 854 c-89 -44 -83 -221 9 -253 69 -24 146 -3 172 48 20 38 21
123 1 160 -28 55 -117 77 -182 45z m124 -56 c12 -14 18 -36 18 -70 0 -42 -4
-53 -28 -74 -35 -30 -59 -30 -93 0 -24 20 -28 31 -28 74 0 35 6 57 18 71 31
34 82 34 113 -1z"/>
<path d="M4230 725 l0 -145 90 0 c89 0 90 0 90 25 0 24 -3 25 -60 25 l-60 0 0
120 0 120 -30 0 -30 0 0 -145z"/>
<path d="M4823 843 c-16 -3 -23 -11 -23 -29 0 -15 -6 -24 -15 -24 -9 0 -15 -9
-15 -25 0 -16 6 -25 15 -25 12 0 15 -14 15 -63 0 -78 13 -99 66 -101 35 -1 39
2 42 26 3 21 -1 27 -20 30 -20 3 -23 9 -26 56 -3 50 -2 52 22 52 21 0 26 5 26
25 0 20 -5 25 -25 25 -21 0 -25 5 -25 30 0 17 -3 29 -7 29 -5 -1 -18 -4 -30
-6z"/>
<path d="M4467 766 c-48 -44 -48 -123 -1 -167 21 -19 36 -24 84 -24 66 0 75 5
66 33 -6 17 -13 19 -44 15 -28 -4 -43 0 -62 16 l-25 20 73 1 72 0 0 31 c0 62
-35 98 -96 99 -30 0 -48 -7 -67 -24z m91 -28 c21 -21 13 -28 -28 -28 -38 0
-40 2 -30 20 12 22 40 26 58 8z"/>
<path d="M4670 685 l0 -105 35 0 35 0 0 105 0 105 -35 0 -35 0 0 -105z"/>
<path d="M4969 761 c-24 -25 -29 -38 -29 -78 0 -27 7 -58 15 -70 19 -28 84
-46 130 -37 28 5 35 11 35 29 0 21 -4 23 -39 18 -38 -5 -81 9 -81 27 0 6 29
10 64 10 36 0 67 4 70 8 10 16 -14 88 -35 105 -35 28 -95 22 -130 -12z m99
-33 c3 -15 -4 -18 -32 -18 -38 0 -44 8 -24 28 17 17 52 11 56 -10z"/>
</g>
</svg>
