<?xml version="1.0" standalone="no"?>
<!DOCTYPE svg PUBLIC "-//W3C//DTD SVG 20010904//EN"
 "http://www.w3.org/TR/2001/REC-SVG-20010904/DTD/svg10.dtd">
<svg version="1.0" xmlns="http://www.w3.org/2000/svg"
 width="1536.000000pt" height="1087.000000pt" viewBox="0 0 1536.000000 1087.000000"
 preserveAspectRatio="xMidYMid meet">

<g transform="translate(0.000000,1087.000000) scale(0.100000,-0.100000)"
fill="#000000" stroke="none">
<path d="M3 9488 c4 -760 7 -3205 7 -5435 l0 -4053 7675 0 7675 0 0 5435 0
5435 -7682 0 -7681 0 6 -1382z m10378 -1470 c51 -15 114 -70 140 -121 26 -50
35 -138 20 -194 -47 -174 -283 -244 -421 -125 -51 43 -78 95 -86 165 -18 155
96 287 249 287 33 0 77 -5 98 -12z m-4426 -705 c-3 -21 -10 -99 -16 -173 -6
-74 -13 -138 -14 -141 -2 -3 -22 -12 -45 -19 -23 -7 -43 -17 -46 -22 -3 -4 57
-81 133 -171 76 -90 215 -254 308 -365 94 -110 175 -201 182 -201 6 -1 116 37
244 84 128 47 233 84 235 83 6 -7 -164 -403 -177 -410 -8 -5 -376 -141 -819
-304 -443 -162 -845 -310 -895 -329 -49 -18 -166 -61 -260 -95 -93 -35 -208
-78 -255 -95 -47 -18 -86 -29 -88 -25 -2 5 30 82 71 172 119 261 101 234 184
265 l73 28 0 487 c0 269 -2 488 -4 488 -2 0 -34 -11 -71 -25 -37 -14 -69 -24
-72 -22 -6 7 37 351 45 358 4 4 219 84 477 179 259 95 540 199 625 231 85 32
163 58 173 58 14 1 16 -5 12 -36z m4495 -1043 l0 -1080 -160 0 -160 0 0 1080
0 1080 160 0 160 0 0 -1080z m-2990 104 l0 -906 47 -44 48 -43 0 -93 0 -93
-80 0 -80 0 -80 55 c-51 35 -82 64 -86 80 -9 32 -11 1934 -2 1943 3 4 57 7
120 7 l113 0 0 -906z m1600 499 l0 -408 38 42 c20 23 55 53 76 68 l39 25 296
0 c338 0 331 1 437 -87 99 -83 94 -47 94 -618 0 -574 7 -533 -105 -625 -101
-81 -93 -80 -439 -80 l-304 0 -58 31 c-33 17 -69 40 -81 51 l-23 21 0 -51 0
-52 -168 0 c-167 0 -168 0 -213 28 -24 16 -50 40 -58 54 l-13 26 -33 -32 c-18
-18 -53 -43 -77 -55 -42 -20 -59 -21 -319 -21 -151 0 -289 4 -308 10 -45 13
-160 101 -191 147 -25 36 -25 37 -25 269 0 220 1 234 21 261 35 47 155 142
193 153 55 15 600 13 631 -3 13 -7 35 -28 47 -46 l23 -34 0 201 0 201 -33 25
-34 26 -295 0 -295 0 -38 -25 -37 -26 -68 56 c-80 65 -94 81 -86 94 4 5 34 30
67 55 l61 46 381 0 c439 0 416 4 531 -101 45 -42 69 -71 76 -97 6 -23 10 -212
10 -492 0 -396 2 -458 16 -478 8 -12 19 -22 25 -22 5 0 9 356 9 935 l0 935
115 0 115 0 0 -407z m-2260 -1239 c0 -12 -122 -419 -131 -435 -5 -9 -64 -37
-131 -62 -68 -25 -301 -111 -518 -192 -217 -80 -398 -149 -402 -153 -4 -4 -1
-53 6 -108 l12 -101 95 -114 c110 -131 256 -305 477 -566 84 -101 158 -183
164 -183 6 0 95 22 197 50 102 27 225 58 274 68 l87 20 0 -207 0 -206 -407
-151 c-225 -83 -410 -150 -412 -148 -1 1 -2 62 -2 134 l2 131 -175 232 c-172
229 -223 286 -695 787 -86 91 -160 164 -166 164 -5 -1 -109 -39 -230 -84 -345
-129 -405 -150 -405 -142 0 4 34 109 76 234 l75 226 262 97 c144 54 357 133
472 175 244 91 944 349 1220 451 105 38 199 74 210 79 24 10 45 12 45 4z
m1195 -534 c23 -11 52 -31 65 -44 l22 -25 25 30 c37 43 74 59 143 59 l60 0 0
-82 c0 -76 -2 -84 -27 -111 l-28 -28 -2 -711 c-3 -800 4 -731 -83 -803 -91
-76 -85 -76 -482 -73 l-353 3 3 64 c4 107 -16 101 346 101 l311 0 30 24 30 24
3 256 c2 141 0 256 -4 256 -3 0 -15 -12 -27 -26 -11 -15 -41 -40 -66 -55 l-45
-29 -243 0 c-275 0 -275 0 -366 80 -81 71 -77 47 -77 515 0 471 -4 444 83 519
88 75 89 75 381 76 240 0 263 -2 301 -20z m1247 2 c60 -31 130 -95 149 -137
17 -37 19 -75 19 -443 0 -319 -3 -409 -14 -435 -14 -35 -100 -114 -153 -141
-28 -14 -75 -16 -343 -16 -348 0 -346 0 -432 72 -89 74 -88 65 -88 523 0 366
2 403 19 440 20 44 110 123 163 142 23 8 128 12 338 12 277 1 309 -1 342 -17z
m368 -4 c10 -25 290 -895 311 -966 l12 -42 42 132 c98 310 278 864 286 881 8
14 24 17 99 17 49 0 91 -3 93 -7 2 -5 -59 -188 -135 -408 -77 -220 -170 -484
-205 -587 l-66 -188 -112 0 -113 0 -16 43 c-71 189 -393 1133 -390 1139 3 5
46 8 95 8 83 0 90 -2 99 -22z m-1996 -2470 c-3 -4 -18 -6 -33 -5 -38 3 -30 14
8 13 16 -1 27 -4 25 -8z m-2593 -34 c13 -7 11 -41 -2 -50 -8 -5 -6 -10 5 -16
23 -13 20 -55 -4 -68 -12 -6 -35 -10 -53 -8 -32 3 -32 3 -35 67 -4 85 -1 91
44 86 20 -3 40 -8 45 -11z m182 -15 c25 -30 22 -75 -8 -104 -46 -47 -118 -23
-131 42 -5 27 -1 37 25 64 27 26 37 30 64 25 18 -3 40 -16 50 -27z m133 10
c19 -15 18 -44 -2 -64 -15 -14 -15 -18 1 -41 9 -14 14 -28 12 -31 -3 -2 -13 9
-23 26 -26 44 -61 43 -67 -1 -2 -18 -5 5 -5 51 l-2 84 36 -6 c20 -3 42 -11 50
-18z m309 11 c4 -6 -5 -10 -19 -10 -25 0 -26 -2 -26 -65 0 -37 -4 -65 -10 -65
-6 0 -10 28 -10 65 0 58 -2 65 -20 65 -11 0 -20 5 -20 10 0 6 22 10 49 10 28
0 53 -4 56 -10z m141 -14 c21 -18 28 -32 28 -61 0 -70 -79 -101 -129 -50 -73
72 24 178 101 111z m151 3 c16 -14 17 -51 1 -67 -9 -9 -9 -18 0 -37 18 -40 14
-43 -9 -7 -26 39 -59 44 -59 7 0 -14 -4 -25 -10 -25 -12 0 -14 133 -3 144 10
10 62 -1 80 -15z m236 -11 c40 -48 5 -128 -57 -128 -38 1 -62 18 -76 54 -29
77 79 138 133 74z m220 10 c25 -13 38 -53 27 -82 -13 -35 -49 -56 -97 -56
l-43 0 0 73 c0 41 3 77 7 81 9 8 80 -2 106 -16z m152 12 c4 -6 -12 -10 -39
-10 -42 0 -46 -2 -46 -25 0 -22 5 -25 38 -27 l37 -1 -38 -4 c-36 -4 -38 -6
-35 -36 3 -30 6 -32 48 -38 l45 -6 -52 -1 -53 -2 0 73 c0 41 3 77 7 80 10 11
81 8 88 -3z m437 -20 c25 -26 29 -36 24 -63 -13 -65 -85 -89 -131 -42 -39 38
-29 106 18 125 38 15 58 11 89 -20z m489 10 l24 -20 -35 14 c-43 17 -76 7 -92
-29 -15 -33 2 -71 38 -87 21 -10 31 -9 55 4 16 10 29 13 29 8 0 -4 -13 -14
-29 -21 -21 -9 -27 -17 -20 -25 6 -8 3 -16 -8 -25 -15 -11 -16 -11 -6 0 9 11
9 17 -2 27 -7 8 -17 14 -21 14 -4 0 -18 10 -31 22 -32 30 -31 81 2 113 29 30
65 32 96 5z m318 5 c48 -24 56 -81 16 -120 -62 -63 -159 4 -125 85 19 46 62
60 109 35z m221 5 c0 -5 -20 -10 -45 -10 -41 0 -45 -2 -45 -25 0 -22 5 -25 38
-26 l37 -2 -35 -6 c-29 -5 -36 -11 -38 -33 -3 -28 1 -31 68 -41 14 -3 1 -5
-27 -6 l-53 -1 0 73 c0 41 3 77 7 80 10 11 93 8 93 -3z m398 -12 c20 -17 7
-20 -23 -4 -67 35 -129 -50 -75 -104 24 -24 57 -26 88 -4 28 19 24 36 -9 45
-21 6 -21 7 9 8 31 1 32 0 32 -41 0 -31 -3 -39 -10 -28 -7 12 -12 12 -22 2
-19 -19 -72 -14 -96 8 -38 35 -25 111 21 130 24 10 65 4 85 -12z m161 7 c48
-24 56 -81 16 -120 -62 -63 -159 4 -125 85 19 46 62 60 109 35z m321 5 c0 -5
-18 -10 -40 -10 -36 0 -40 -2 -40 -25 0 -22 5 -25 38 -27 l37 -1 -38 -4 c-36
-4 -38 -6 -35 -36 3 -29 7 -33 43 -38 l40 -6 -47 -2 -48 -1 0 80 0 80 45 0
c25 0 45 -4 45 -10z m113 1 c31 -12 39 -43 19 -72 -13 -19 -13 -24 2 -53 l18
-31 -29 33 c-37 43 -62 43 -65 0 -1 -21 -3 -12 -7 22 -11 106 0 124 62 101z
m77 -81 l-7 -75 -1 85 c-1 46 2 80 6 75 5 -6 5 -44 2 -85z m259 75 c48 -24 56
-81 16 -120 -62 -63 -159 4 -125 85 19 46 62 60 109 35z m220 4 c36 -13 51
-35 51 -78 0 -42 -40 -71 -96 -71 l-44 0 0 73 c0 41 3 77 7 80 10 10 46 8 82
-4z m391 1 c0 -5 -18 -10 -40 -10 -36 0 -40 -2 -40 -25 0 -22 5 -25 38 -27
l37 -1 -37 -4 c-36 -4 -38 -6 -38 -38 0 -33 1 -34 48 -38 l47 -3 -52 -2 c-59
-2 -61 0 -55 101 l4 57 44 0 c24 0 44 -4 44 -10z m157 -11 c21 -18 9 -21 -22
-5 -67 35 -129 -50 -75 -104 26 -26 65 -25 91 1 22 22 17 34 -16 42 -13 3 -9
5 13 6 30 1 32 -1 32 -34 0 -23 -4 -35 -12 -34 -7 1 -25 -1 -40 -5 -45 -13
-78 1 -94 39 -16 40 -7 75 28 100 24 17 70 14 95 -6z m-5437 -58 l0 -70 43 -4
c38 -4 37 -4 -8 -3 l-50 1 -3 73 c-2 45 1 72 8 72 6 0 10 -28 10 -69z m201 4
c30 -67 40 -111 13 -62 -12 22 -21 27 -54 27 -30 0 -40 -5 -45 -20 -3 -11 -10
-20 -15 -20 -5 0 6 31 23 70 18 38 36 70 40 70 5 0 21 -29 38 -65z m616 -7
c18 -39 31 -73 28 -76 -2 -3 -10 7 -16 22 -10 21 -19 26 -50 26 -32 0 -41 -5
-53 -27 -8 -16 -15 -22 -16 -15 0 19 57 142 67 142 4 0 23 -32 40 -72z m513
-5 c0 -42 -3 -73 -7 -69 -10 10 -12 146 -2 146 5 0 9 -34 9 -77z m651 0 c-3
-94 -11 -93 -11 2 0 43 3 75 6 72 4 -4 6 -37 5 -74z m109 21 c23 -30 40 -58
37 -60 -3 -3 -20 16 -38 42 l-34 46 -3 -56 c-4 -80 -22 -69 -22 14 0 39 4 70
9 70 5 0 28 -25 51 -56z m65 -16 c0 -34 -4 -64 -10 -65 -5 -2 -10 2 -9 7 1 6
2 37 3 71 1 80 16 69 16 -13z m245 12 c14 -33 28 -60 31 -60 4 0 18 28 33 61
15 34 29 60 31 57 3 -3 -9 -37 -27 -77 -20 -46 -35 -68 -41 -62 -14 14 -67
141 -59 141 4 0 18 -27 32 -60z m229 -12 c17 -39 29 -73 26 -76 -2 -2 -10 7
-16 22 -10 21 -19 26 -51 26 -32 0 -40 -4 -49 -26 -5 -15 -12 -25 -15 -22 -2
3 5 27 17 54 11 27 25 59 30 72 5 12 12 22 17 22 5 0 23 -32 41 -72z m322 7
c30 -67 40 -111 13 -62 -12 22 -21 27 -53 27 -31 0 -40 -5 -50 -26 -6 -15 -14
-25 -16 -22 -7 7 58 148 68 148 5 0 21 -29 38 -65z m472 18 l29 -47 26 47 c14
26 29 47 34 47 4 0 7 -35 6 -77 l-1 -78 -6 65 -6 65 -22 -35 c-13 -19 -23 -38
-23 -42 0 -19 -17 -4 -40 35 l-25 42 -6 -65 -6 -65 -1 78 c-1 42 1 77 6 77 4
0 20 -21 35 -47z m601 -73 c3 0 17 28 32 61 16 34 29 58 31 52 4 -10 -54 -143
-62 -143 -6 0 -51 100 -59 132 -3 12 8 -5 24 -39 17 -35 32 -63 34 -63z m494
8 l-3 -43 -49 63 c-26 35 -46 65 -43 68 2 3 22 -19 43 -48 l39 -53 4 65 c4 48
6 55 9 28 2 -21 2 -57 0 -80z m552 46 c31 -68 40 -110 14 -61 -12 22 -21 27
-53 27 -31 0 -40 -5 -50 -26 -6 -15 -14 -25 -16 -22 -7 7 58 148 68 148 4 0
21 -30 37 -66z m463 19 l29 -47 26 47 c14 26 29 47 34 47 4 0 7 -35 6 -77 l-1
-78 -6 65 -6 65 -25 -42 c-27 -47 -36 -52 -44 -25 -4 9 -16 28 -27 42 l-21 25
5 -27 c2 -15 1 -44 -3 -65 -6 -31 -8 -23 -9 40 0 42 2 77 7 77 4 0 20 -21 35
-47z m238 -18 c30 -67 40 -111 13 -62 -12 22 -21 27 -54 27 -30 0 -40 -5 -45
-20 -3 -11 -10 -20 -15 -20 -5 0 6 31 23 70 18 38 36 70 40 70 5 0 21 -29 38
-65z"/>
<path d="M5288 6763 l-178 -66 0 -483 c0 -417 2 -484 15 -484 8 0 119 39 247
86 780 287 729 267 726 280 -5 19 -612 733 -623 733 -5 0 -90 -30 -187 -66z"/>
<path d="M9134 6361 c-37 -24 -64 -48 -67 -62 -9 -34 -7 -790 2 -813 4 -10 36
-36 71 -58 l64 -38 269 0 269 0 34 34 34 34 0 437 0 437 -34 34 -34 34 -273 0
-274 0 -61 -39z"/>
<path d="M7902 5820 c-48 -30 -54 -56 -50 -224 l4 -149 35 -29 34 -29 247 3
246 3 59 40 58 40 3 140 c1 77 0 150 -3 162 -3 12 -20 31 -39 42 -32 20 -47
21 -297 21 -246 0 -266 -1 -297 -20z"/>
<path d="M7470 4933 c-14 -9 -28 -22 -32 -27 -4 -6 -8 -179 -8 -384 l0 -373
26 -24 c27 -25 27 -25 246 -25 195 0 223 2 256 19 45 23 77 56 91 94 14 36 15
616 1 651 -5 15 -31 38 -62 55 l-53 31 -220 0 c-191 0 -224 -2 -245 -17z"/>
<path d="M8609 4921 l-29 -29 0 -371 0 -370 27 -26 28 -25 261 0 261 0 27 25
26 24 0 371 0 372 -29 29 -29 29 -257 0 -257 0 -29 -29z"/>
<path d="M4950 2565 c0 -19 5 -25 23 -25 31 0 51 15 44 34 -4 10 -18 16 -37
16 -25 0 -30 -4 -30 -25z"/>
<path d="M4950 2496 c0 -31 3 -36 23 -36 13 0 32 6 43 14 26 20 8 50 -35 54
-30 3 -31 2 -31 -32z"/>
<path d="M5120 2593 c-44 -15 -55 -91 -18 -117 12 -9 31 -16 41 -16 24 0 67
44 67 68 0 40 -53 78 -90 65z"/>
<path d="M5260 2556 c0 -31 3 -36 23 -36 33 0 49 15 45 41 -2 19 -10 25 -35
27 -32 3 -33 2 -33 -32z"/>
<path d="M5713 2590 c-46 -18 -56 -74 -20 -108 44 -41 107 -16 107 41 0 38 -7
50 -37 66 -25 13 -21 12 -50 1z"/>
<path d="M5870 2555 c0 -30 3 -35 23 -35 42 0 66 50 31 64 -39 15 -54 7 -54
-29z"/>
<path d="M6090 2588 c-30 -11 -40 -25 -40 -60 0 -35 32 -68 65 -68 14 0 34 9
45 20 51 51 -3 133 -70 108z"/>
<path d="M6300 2524 l0 -67 43 7 c47 7 67 27 67 66 0 36 -29 60 -73 60 l-37 0
0 -66z"/>
<path d="M6902 2590 c-53 -22 -51 -97 3 -122 52 -24 106 32 85 87 -7 19 -50
49 -63 44 -1 0 -12 -4 -25 -9z"/>
<path d="M7730 2593 c-44 -15 -55 -91 -18 -117 12 -9 31 -16 41 -16 24 0 67
44 67 68 0 40 -53 78 -90 65z"/>
<path d="M8510 2593 c-44 -15 -55 -91 -18 -117 12 -9 31 -16 41 -16 24 0 67
44 67 68 0 40 -53 78 -90 65z"/>
<path d="M8950 2554 c0 -32 2 -35 26 -32 55 6 59 68 4 68 -28 0 -30 -3 -30
-36z"/>
<path d="M9280 2593 c-44 -15 -55 -91 -18 -117 12 -9 31 -16 41 -16 24 0 67
44 67 68 0 40 -53 78 -90 65z"/>
<path d="M9482 2528 l3 -63 38 1 c45 2 77 28 77 64 0 38 -29 60 -79 60 l-42 0
3 -62z"/>
<path d="M4818 2550 c-14 -34 -14 -35 10 -38 34 -5 38 3 20 41 l-16 32 -14
-35z"/>
<path d="M5427 2545 l-17 -35 35 0 c33 0 34 0 23 30 -14 43 -23 44 -41 5z"/>
<path d="M7241 2549 c-6 -18 -11 -34 -11 -35 0 -2 14 -4 31 -4 26 0 30 3 24
18 -4 9 -10 25 -12 35 -8 26 -20 21 -32 -14z"/>
<path d="M7567 2550 c-15 -35 -15 -35 10 -38 35 -5 39 3 21 41 l-16 32 -15
-35z"/>
<path d="M9686 2552 c-21 -41 -21 -42 14 -42 33 0 37 12 16 49 l-14 25 -16
-32z"/>
<path d="M10387 2550 c-15 -35 -15 -35 10 -38 35 -5 39 3 21 41 l-16 32 -15
-35z"/>
</g>
</svg>
