<?xml version="1.0" standalone="no"?>
<!DOCTYPE svg PUBLIC "-//W3C//DTD SVG 20010904//EN"
 "http://www.w3.org/TR/2001/REC-SVG-20010904/DTD/svg10.dtd">
<svg version="1.0" xmlns="http://www.w3.org/2000/svg"
 width="3196.000000pt" height="902.000000pt" viewBox="0 0 3196.000000 902.000000"
 preserveAspectRatio="xMidYMid meet">

<g transform="translate(0.000000,902.000000) scale(0.100000,-0.100000)"
fill="#000000" stroke="none">
<path d="M0 4510 l0 -4510 15980 0 15980 0 0 4510 0 4510 -15980 0 -15980 0 0
-4510z m13731 2660 c511 -51 946 -215 1327 -501 50 -38 92 -75 92 -82 0 -9
-243 -355 -535 -761 -13 -18 -15 -17 -52 11 -221 175 -581 341 -873 404 -134
29 -398 37 -500 15 -154 -33 -278 -117 -331 -223 -34 -68 -34 -208 -1 -271 80
-152 240 -217 883 -361 965 -217 1373 -484 1501 -986 29 -113 37 -402 15 -541
-105 -662 -614 -1078 -1421 -1164 -128 -14 -490 -13 -626 0 -505 51 -959 206
-1347 461 -112 74 -261 188 -302 232 l-23 25 302 361 c166 199 305 361 310
361 4 0 58 -37 118 -83 337 -252 701 -402 1086 -448 146 -17 401 -7 494 20
149 43 249 117 299 220 24 48 28 68 28 141 0 99 -19 144 -84 203 -98 88 -262
143 -833 277 -637 150 -976 295 -1209 517 -141 135 -225 278 -275 468 -35 134
-45 417 -20 565 106 617 594 1036 1321 1134 121 17 512 20 656 6z m-8041 -545
l0 -485 -1165 0 -1165 0 0 -335 0 -335 1060 0 1060 0 0 -485 0 -485 -1060 0
-1060 0 0 -380 0 -380 1165 0 1165 0 0 -485 0 -485 -1705 0 -1705 0 0 2170 0
2170 1705 0 1705 0 0 -485z m2385 -639 l620 -1123 17 31 c9 17 289 522 621
1121 l604 1090 546 3 547 2 0 -2170 0 -2170 -545 0 -545 0 -2 1242 -3 1241
-610 -1103 c-335 -606 -615 -1109 -621 -1117 -8 -12 -144 226 -630 1104 l-619
1120 -3 -1243 -2 -1244 -540 0 -540 0 0 2170 0 2170 543 0 542 -1 620 -1123z
m11215 639 l0 -485 -1165 0 -1165 0 0 -335 0 -335 1055 0 1055 0 0 -485 0
-485 -1055 0 -1055 0 0 -380 0 -380 1165 0 1165 0 0 -485 0 -485 -1710 0
-1710 0 0 2170 0 2170 1710 0 1710 0 0 -485z m2990 462 c382 -70 660 -202 894
-427 121 -116 205 -231 281 -385 107 -216 148 -396 148 -660 0 -192 -18 -311
-73 -476 -44 -134 -81 -211 -155 -324 -140 -216 -354 -402 -588 -510 -48 -22
-86 -44 -87 -49 0 -4 230 -335 511 -735 281 -399 514 -732 516 -739 4 -10
-120 -12 -613 -10 l-617 3 -476 677 -476 678 -257 0 -258 0 0 -680 0 -680
-545 0 -545 0 0 2170 0 2171 1123 -4 c1011 -3 1131 -5 1217 -20z m3080 -797
l0 -820 885 0 885 0 0 820 0 820 540 0 540 0 0 -820 0 -820 880 0 880 0 0
-485 0 -485 -880 0 -880 0 0 -865 0 -865 -540 0 -540 0 0 865 0 865 -885 0
-885 0 0 -865 0 -865 -540 0 -540 0 0 2170 0 2170 540 0 540 0 0 -820z m-8531
-3797 c99 -31 180 -129 181 -215 l0 -38 -59 0 -59 0 -6 35 c-8 43 -50 94 -93
111 -18 8 -67 14 -110 14 -124 -1 -193 -43 -193 -118 0 -71 37 -96 201 -137
166 -41 223 -63 269 -102 146 -126 83 -359 -113 -418 -67 -20 -225 -21 -293 0
-63 19 -125 62 -164 117 -31 42 -60 123 -60 165 0 21 4 23 60 23 l59 0 12 -42
c17 -65 46 -105 97 -136 42 -24 56 -27 142 -27 109 0 160 18 191 69 30 47 33
75 16 112 -22 44 -68 67 -229 109 -73 20 -157 47 -185 61 -99 48 -148 144
-123 242 23 92 69 141 165 174 67 23 224 24 294 1z m-13959 -48 l0 -55 -260 0
-260 0 0 -135 0 -135 245 0 245 0 0 -55 0 -55 -245 0 -245 0 0 -145 0 -145
270 0 270 0 0 -55 0 -55 -335 0 -335 0 0 445 0 445 325 0 325 0 0 -55z m4917
-310 l120 -365 123 365 124 365 88 0 88 0 0 -445 0 -445 -65 0 -65 0 -2 349
-3 350 -119 -350 -119 -349 -56 0 -56 0 -122 358 -122 357 0 -357 -1 -358 -60
0 -60 0 0 445 0 445 93 0 93 0 121 -365z m3273 208 l0 -157 28 27 c82 79 264
77 339 -4 42 -46 46 -74 51 -341 l4 -258 -61 0 -61 0 0 208 c-1 237 -7 276
-50 315 -41 36 -120 38 -171 4 -64 -42 -72 -75 -77 -314 l-5 -213 -58 0 -59 0
0 445 0 445 60 0 60 0 0 -157z m4110 -288 l0 -445 -55 0 -55 0 0 41 0 42 -24
-26 c-39 -42 -82 -58 -151 -58 -113 0 -194 53 -244 161 -23 50 -26 67 -26 175
0 105 3 127 24 173 27 60 95 125 148 143 19 6 68 9 108 7 65 -3 78 -7 114 -36
l41 -33 0 151 0 150 60 0 60 0 0 -445z m3820 385 l0 -60 -55 0 -55 0 0 60 0
60 55 0 55 0 0 -60z m2560 -125 l0 -185 225 0 225 0 0 185 0 185 60 0 60 0 0
-445 0 -445 -60 0 -60 0 0 205 0 205 -225 0 -225 0 0 -205 0 -205 -65 0 -65 0
0 445 0 445 65 0 65 0 0 -185z m2840 125 l0 -60 -55 0 -55 0 0 60 0 60 55 0
55 0 0 -60z m1300 -385 l0 -445 -60 0 -60 0 0 445 0 445 60 0 60 0 0 -445z
m-955 205 l55 0 0 -55 0 -55 -55 0 -55 0 0 -189 c0 -104 4 -201 10 -215 8 -23
15 -26 54 -26 48 0 48 -1 60 -72 l7 -37 -43 -3 c-87 -6 -139 6 -170 41 l-28
31 0 235 0 235 -40 0 -40 0 0 55 0 55 40 0 40 0 0 83 0 82 53 32 52 31 3 -114
3 -114 54 0z m-21305 -11 c20 -11 45 -34 54 -50 l17 -29 33 35 c45 47 92 65
173 65 85 0 137 -27 167 -85 20 -37 21 -59 24 -307 l3 -268 -60 0 -60 0 -3
251 -3 251 -28 24 c-36 31 -107 33 -154 4 -62 -37 -67 -60 -71 -307 l-4 -223
-58 0 -59 0 -3 249 -3 249 -25 27 c-23 24 -30 27 -82 23 -44 -3 -64 -10 -84
-29 -50 -46 -57 -77 -62 -306 l-5 -213 -53 0 -54 0 0 325 0 325 50 0 50 0 0
-39 0 -39 33 30 c46 44 83 57 161 58 51 0 77 -5 106 -21z m1046 -14 c156 -97
180 -419 41 -553 -93 -90 -248 -99 -334 -19 l-23 20 0 -156 0 -157 -55 0 -55
0 0 445 0 445 50 0 50 0 0 -42 1 -43 22 26 c46 55 84 70 173 67 69 -3 87 -7
130 -33z m583 24 c36 -13 36 -10 14 -72 -15 -41 -20 -47 -38 -41 -42 13 -94
15 -115 4 -12 -6 -31 -33 -43 -58 -19 -42 -22 -70 -25 -264 l-4 -218 -59 0
-59 0 0 325 0 325 55 0 55 0 0 -34 0 -34 39 39 c35 36 43 39 93 39 30 0 69 -5
87 -11z m489 -15 c98 -49 147 -132 159 -271 l6 -73 -240 0 -241 0 8 -35 c21
-92 86 -145 180 -145 63 0 105 21 141 69 21 29 28 31 82 31 l60 0 -7 -32 c-17
-88 -111 -164 -217 -176 -222 -25 -353 79 -366 292 -11 176 57 306 184 352 21
7 74 13 119 14 67 0 89 -4 132 -26z m623 11 c68 -24 108 -70 123 -142 l7 -31
-60 -4 c-56 -3 -61 -1 -66 20 -9 38 -61 62 -136 62 -52 0 -72 -4 -93 -21 -28
-22 -34 -60 -12 -78 7 -6 71 -27 141 -46 193 -53 235 -84 243 -181 12 -142
-87 -226 -266 -225 -137 1 -214 46 -252 148 -11 30 -20 58 -20 63 0 6 26 10
58 10 57 0 59 -1 75 -35 25 -52 69 -75 145 -75 95 0 152 39 138 94 -7 28 -23
36 -169 76 -159 44 -210 81 -223 162 -14 84 30 162 111 199 52 24 194 26 256
4z m684 -4 c50 -23 93 -71 99 -114 3 -18 7 -122 10 -232 4 -181 8 -222 31
-277 6 -16 0 -18 -58 -18 -68 0 -77 6 -77 51 0 24 -3 24 -55 -6 -61 -36 -99
-46 -187 -46 -83 0 -133 18 -175 63 -74 79 -50 221 47 280 33 20 72 32 145 43
55 8 124 20 153 26 50 10 52 12 52 42 0 71 -51 101 -164 95 -82 -4 -108 -19
-131 -73 -13 -29 -15 -30 -69 -27 -66 4 -68 11 -32 88 42 90 113 122 271 123
76 0 110 -4 140 -18z m2050 0 c50 -23 93 -71 99 -114 3 -18 7 -122 10 -232 4
-181 8 -222 31 -277 6 -16 0 -18 -58 -18 -68 0 -77 6 -77 51 0 24 -3 24 -55
-6 -61 -36 -99 -46 -187 -46 -83 0 -133 18 -175 63 -74 79 -50 221 47 280 33
20 72 32 145 43 55 8 124 20 153 26 50 10 52 12 52 42 0 71 -51 101 -164 95
-82 -4 -108 -19 -131 -73 -13 -29 -15 -30 -69 -27 -66 4 -68 11 -32 88 42 90
113 122 271 123 76 0 110 -4 140 -18z m594 8 c36 -13 36 -10 14 -72 -15 -41
-20 -47 -38 -41 -42 13 -94 15 -115 4 -12 -6 -31 -33 -43 -58 -19 -42 -22 -70
-25 -264 l-4 -218 -59 0 -59 0 0 325 0 325 55 0 55 0 0 -34 0 -34 39 39 c35
36 43 39 93 39 30 0 69 -5 87 -11z m506 -8 c50 -23 93 -71 99 -114 3 -18 7
-122 10 -232 4 -181 8 -222 31 -277 6 -16 0 -18 -58 -18 -68 0 -77 6 -77 51 0
24 -3 24 -55 -6 -61 -36 -99 -46 -187 -46 -83 0 -133 18 -175 63 -74 79 -50
221 47 280 33 20 72 32 145 43 55 8 124 20 153 26 50 10 52 12 52 42 0 71 -51
101 -164 95 -82 -4 -108 -19 -131 -73 -13 -29 -15 -30 -69 -27 -66 4 -68 11
-32 88 42 90 113 122 271 123 76 0 110 -4 140 -18z m672 4 c48 -20 71 -41 94
-87 17 -34 19 -62 19 -298 l0 -260 -60 0 -60 0 0 241 0 241 -34 34 c-30 30
-40 34 -89 34 -67 0 -114 -28 -141 -85 -17 -34 -20 -68 -24 -252 l-5 -213 -58
0 -59 0 0 325 0 325 55 0 55 0 0 -37 0 -37 28 27 c15 14 43 33 62 41 47 20
170 21 217 1z m1361 -11 c98 -49 147 -132 159 -271 l6 -73 -240 0 -241 0 8
-35 c21 -92 86 -145 180 -145 63 0 105 21 141 69 21 29 28 31 82 31 l60 0 -7
-32 c-17 -88 -111 -164 -217 -176 -222 -25 -353 79 -366 292 -11 176 57 306
184 352 21 7 74 13 119 14 67 0 89 -4 132 -26z m689 11 c48 -20 71 -41 94 -87
17 -34 19 -62 19 -298 l0 -260 -60 0 -60 0 0 241 0 241 -34 34 c-30 30 -40 34
-89 34 -67 0 -114 -28 -141 -85 -17 -34 -20 -68 -24 -252 l-5 -213 -58 0 -59
0 0 325 0 325 55 0 55 0 0 -37 0 -37 28 27 c15 14 43 33 62 41 47 20 170 21
217 1z m624 0 c68 -24 108 -70 123 -142 l7 -31 -60 -4 c-56 -3 -61 -1 -66 20
-9 38 -61 62 -136 62 -52 0 -72 -4 -93 -21 -28 -22 -34 -60 -12 -78 7 -6 71
-27 141 -46 193 -53 235 -84 243 -181 12 -142 -87 -226 -266 -225 -137 1 -214
46 -252 148 -11 30 -20 58 -20 63 0 6 26 10 58 10 57 0 59 -1 75 -35 25 -52
69 -75 145 -75 95 0 152 39 138 94 -7 28 -23 36 -169 76 -159 44 -210 81 -223
162 -14 84 30 162 111 199 52 24 194 26 256 4z m667 -11 c98 -49 147 -132 159
-271 l6 -73 -240 0 -241 0 8 -35 c21 -92 86 -145 180 -145 63 0 105 21 141 69
21 29 28 31 82 31 l60 0 -7 -32 c-17 -88 -111 -164 -217 -176 -222 -25 -353
79 -366 292 -11 176 57 306 184 352 21 7 74 13 119 14 67 0 89 -4 132 -26z
m1710 0 c98 -49 147 -132 159 -271 l6 -73 -240 0 -241 0 8 -35 c21 -92 86
-145 180 -145 63 0 105 21 141 69 21 29 28 31 82 31 l60 0 -7 -32 c-17 -88
-111 -164 -217 -176 -222 -25 -353 79 -366 292 -11 176 57 306 184 352 21 7
74 13 119 14 67 0 89 -4 132 -26z m1850 0 c98 -49 147 -132 159 -271 l6 -73
-240 0 -241 0 8 -35 c21 -92 86 -145 180 -145 63 0 105 21 141 69 21 29 28 31
82 31 l60 0 -7 -32 c-17 -88 -111 -164 -217 -176 -222 -25 -353 79 -366 292
-11 176 57 306 184 352 21 7 74 13 119 14 67 0 89 -4 132 -26z m678 17 c60 0
72 -3 77 -18 31 -104 167 -464 171 -453 3 8 42 117 87 243 l81 227 63 0 62 0
-122 -322 -121 -323 -54 -3 -55 -3 -115 305 c-63 168 -118 306 -121 306 -3 0
-12 -18 -19 -41 -12 -34 -17 -39 -34 -34 -43 14 -94 17 -116 5 -12 -6 -31 -33
-43 -58 -19 -42 -22 -70 -25 -264 l-4 -218 -59 0 -59 0 0 325 0 325 55 0 55 0
0 -34 0 -34 40 40 40 40 72 -6 c40 -3 105 -5 144 -5z m1282 -7 c52 -21 90 -60
118 -119 36 -76 34 -83 -32 -87 -54 -3 -56 -2 -69 27 -7 17 -27 44 -46 59 -30
25 -39 28 -94 24 -117 -7 -160 -65 -160 -218 0 -111 19 -160 75 -198 30 -20
44 -23 99 -20 58 4 66 7 98 41 18 21 36 51 40 67 5 29 7 30 65 30 l60 0 -7
-37 c-20 -110 -126 -213 -219 -213 -22 0 -36 -16 -36 -41 0 -5 9 -9 21 -9 28
0 79 -53 79 -83 0 -13 -9 -36 -21 -51 -35 -44 -70 -56 -164 -56 l-85 0 0 34 0
34 63 7 c34 4 70 12 80 17 29 15 2 38 -44 38 -38 0 -39 1 -33 28 4 15 11 38
16 52 6 17 6 26 -3 29 -49 16 -119 64 -146 100 -49 64 -66 134 -61 256 3 90 7
109 33 160 33 64 82 109 141 130 54 19 185 19 232 -1z m627 -8 c70 -32 130
-101 151 -172 23 -79 16 -241 -12 -304 -46 -102 -144 -160 -267 -161 -92 -1
-139 13 -199 56 -72 52 -102 123 -106 251 -7 175 35 266 149 323 55 28 72 31
148 31 69 0 96 -5 136 -24z m626 9 c68 -24 108 -70 123 -142 l7 -31 -60 -4
c-56 -3 -61 -1 -66 20 -9 38 -61 62 -136 62 -52 0 -72 -4 -93 -21 -28 -22 -34
-60 -12 -78 7 -6 71 -27 141 -46 193 -53 235 -84 243 -181 12 -142 -87 -226
-266 -225 -137 1 -214 46 -252 148 -11 30 -20 58 -20 63 0 6 26 10 58 10 57 0
59 -1 75 -35 25 -52 69 -75 145 -75 95 0 152 39 138 94 -7 28 -23 36 -169 76
-159 44 -210 81 -223 162 -14 84 30 162 111 199 52 24 194 26 256 4z m1904 -9
c70 -32 130 -101 151 -172 23 -79 16 -241 -12 -304 -46 -102 -144 -160 -267
-161 -92 -1 -139 13 -199 56 -72 52 -102 123 -106 251 -7 175 35 266 149 323
55 28 72 31 148 31 69 0 96 -5 136 -24z m626 9 c68 -24 108 -70 123 -142 l7
-31 -60 -4 c-56 -3 -61 -1 -66 20 -9 38 -61 62 -136 62 -52 0 -72 -4 -93 -21
-28 -22 -34 -60 -12 -78 7 -6 71 -27 141 -46 193 -53 235 -84 243 -181 12
-142 -87 -226 -266 -225 -137 1 -214 46 -252 148 -11 30 -20 58 -20 63 0 6 26
10 58 10 57 0 59 -1 75 -35 25 -52 69 -75 145 -75 95 0 152 39 138 94 -7 28
-23 36 -169 76 -159 44 -210 81 -223 162 -14 84 30 162 111 199 52 24 194 26
256 4z m705 -20 c156 -97 180 -419 41 -553 -93 -90 -248 -99 -334 -19 l-23 20
0 -156 0 -157 -55 0 -55 0 0 445 0 445 50 0 50 0 0 -42 1 -43 22 26 c46 55 84
70 173 67 69 -3 87 -7 130 -33z m1289 16 c50 -23 93 -71 99 -114 3 -18 7 -122
10 -232 4 -181 8 -222 31 -277 6 -16 0 -18 -58 -18 -68 0 -77 6 -77 51 0 24
-3 24 -55 -6 -61 -36 -99 -46 -187 -46 -83 0 -133 18 -175 63 -74 79 -50 221
47 280 33 20 72 32 145 43 55 8 124 20 153 26 50 10 52 12 52 42 0 71 -51 101
-164 95 -82 -4 -108 -19 -131 -73 -13 -29 -15 -30 -69 -27 -66 4 -68 11 -32
88 42 90 113 122 271 123 76 0 110 -4 140 -18z m950 0 c50 -23 93 -71 99 -114
3 -18 7 -122 10 -232 4 -181 8 -222 31 -277 6 -16 0 -18 -58 -18 -68 0 -77 6
-77 51 0 24 -3 24 -55 -6 -61 -36 -99 -46 -187 -46 -83 0 -133 18 -175 63 -74
79 -50 221 47 280 33 20 72 32 145 43 55 8 124 20 153 26 50 10 52 12 52 42 0
71 -51 101 -164 95 -82 -4 -108 -19 -131 -73 -13 -29 -15 -30 -69 -27 -66 4
-68 11 -32 88 42 90 113 122 271 123 76 0 110 -4 140 -18z m594 8 c36 -13 36
-10 14 -72 -15 -41 -20 -47 -38 -41 -42 13 -94 15 -115 4 -12 -6 -31 -33 -43
-58 -19 -42 -22 -70 -25 -264 l-4 -218 -59 0 -59 0 0 325 0 325 55 0 55 0 0
-34 0 -34 39 39 c35 36 43 39 93 39 30 0 69 -5 87 -11z m489 -15 c98 -49 147
-132 159 -271 l6 -73 -240 0 -241 0 8 -35 c21 -92 86 -145 180 -145 63 0 105
21 141 69 21 29 28 31 82 31 l60 0 -7 -32 c-17 -88 -111 -164 -217 -176 -222
-25 -353 79 -366 292 -11 176 57 306 184 352 21 7 74 13 119 14 67 0 89 -4
132 -26z m623 11 c68 -24 108 -70 123 -142 l7 -31 -60 -4 c-56 -3 -61 -1 -66
20 -9 38 -61 62 -136 62 -52 0 -72 -4 -93 -21 -28 -22 -34 -60 -12 -78 7 -6
71 -27 141 -46 193 -53 235 -84 243 -181 12 -142 -87 -226 -266 -225 -137 1
-214 46 -252 148 -11 30 -20 58 -20 63 0 6 26 10 58 10 57 0 59 -1 75 -35 25
-52 69 -75 145 -75 95 0 152 39 138 94 -7 28 -23 36 -169 76 -159 44 -210 81
-223 162 -14 84 30 162 111 199 52 24 194 26 256 4z m-8981 -320 l0 -325 -55
0 -55 0 0 325 0 325 55 0 55 0 0 -325z m5400 0 l0 -325 -55 0 -55 0 0 325 0
325 55 0 55 0 0 -325z"/>
<path d="M21030 5619 l0 -500 493 4 c545 4 538 3 684 73 236 112 340 372 242
601 -72 168 -258 286 -497 313 -48 5 -275 10 -504 10 l-418 0 0 -501z"/>
<path d="M14811 2138 c-49 -33 -75 -90 -79 -173 -5 -85 10 -143 44 -185 35
-41 74 -60 126 -60 93 0 149 68 156 189 5 98 -10 153 -57 204 -35 37 -43 41
-97 45 -50 3 -64 0 -93 -20z"/>
<path d="M4255 2142 c-69 -44 -98 -106 -98 -208 -1 -128 64 -214 160 -214 77
0 135 46 158 124 31 103 10 217 -49 275 -29 28 -45 35 -88 38 -40 3 -60 -1
-83 -15z"/>
<path d="M5320 2138 c-40 -28 -67 -63 -76 -100 l-6 -28 172 0 173 0 -7 33
c-14 73 -77 117 -167 117 -42 0 -65 -6 -89 -22z"/>
<path d="M6819 1916 c-2 -3 -58 -14 -123 -25 -127 -21 -166 -42 -166 -87 0
-57 39 -84 122 -84 106 0 188 68 188 156 0 39 -8 53 -21 40z"/>
<path d="M11810 2138 c-40 -28 -67 -63 -76 -100 l-6 -28 172 0 173 0 -7 33
c-14 73 -77 117 -167 117 -42 0 -65 -6 -89 -22z"/>
<path d="M13790 2138 c-40 -28 -67 -63 -76 -100 l-6 -28 172 0 173 0 -7 33
c-14 73 -77 117 -167 117 -42 0 -65 -6 -89 -22z"/>
<path d="M15500 2138 c-40 -28 -67 -63 -76 -100 l-6 -28 172 0 173 0 -7 33
c-14 73 -77 117 -167 117 -42 0 -65 -6 -89 -22z"/>
<path d="M17350 2138 c-40 -28 -67 -63 -76 -100 l-6 -28 172 0 173 0 -7 33
c-14 73 -77 117 -167 117 -42 0 -65 -6 -89 -22z"/>
<path d="M19945 2141 c-66 -40 -95 -100 -95 -193 0 -80 14 -129 47 -168 36
-43 74 -60 133 -60 114 0 180 80 180 220 0 101 -35 171 -101 205 -40 21 -127
19 -164 -4z"/>
<path d="M22475 2141 c-66 -40 -95 -100 -95 -193 0 -80 14 -129 47 -168 36
-43 74 -60 133 -60 114 0 180 80 180 220 0 101 -35 171 -101 205 -40 21 -127
19 -164 -4z"/>
<path d="M23805 2142 c-69 -44 -98 -106 -98 -208 -1 -128 64 -214 160 -214 77
0 135 46 158 124 31 103 10 217 -49 275 -29 28 -45 35 -88 38 -40 3 -60 -1
-83 -15z"/>
<path d="M25279 1916 c-2 -3 -58 -14 -123 -25 -127 -21 -166 -42 -166 -87 0
-57 39 -84 122 -84 106 0 188 68 188 156 0 39 -8 53 -21 40z"/>
<path d="M26229 1916 c-2 -3 -58 -14 -123 -25 -127 -21 -166 -42 -166 -87 0
-57 39 -84 122 -84 106 0 188 68 188 156 0 39 -8 53 -21 40z"/>
<path d="M27120 2138 c-40 -28 -67 -63 -76 -100 l-6 -28 172 0 173 0 -7 33
c-14 73 -77 117 -167 117 -42 0 -65 -6 -89 -22z"/>
</g>
</svg>
