<?xml version="1.0" standalone="no"?>
<!DOCTYPE svg PUBLIC "-//W3C//DTD SVG 20010904//EN"
 "http://www.w3.org/TR/2001/REC-SVG-20010904/DTD/svg10.dtd">
<svg version="1.0" xmlns="http://www.w3.org/2000/svg"
 width="207.000000pt" height="244.000000pt" viewBox="0 0 207.000000 244.000000"
 preserveAspectRatio="xMidYMid meet">

<g transform="translate(0.000000,244.000000) scale(0.100000,-0.100000)"
fill="#000000" stroke="none">
<path d="M723 2329 c-39 -11 -82 -61 -85 -97 -4 -74 13 -110 65 -142 113 -69
246 64 177 177 -34 56 -95 80 -157 62z"/>
<path d="M950 2205 l0 -116 114 2 114 1 1 113 2 113 -116 1 -115 2 0 -116z"/>
<path d="M1249 2313 c0 -4 -1 -55 -1 -113 l0 -105 116 -3 117 -3 -3 113 -3
113 -112 3 c-62 1 -113 -1 -114 -5z"/>
<path d="M1053 2022 l-103 -3 0 -114 0 -115 115 0 115 0 0 114 c0 83 -3 115
-12 117 -7 2 -59 3 -115 1z"/>
<path d="M650 1905 l0 -115 115 0 115 0 0 115 0 115 -115 0 -115 0 0 -115z"/>
<path d="M662 1722 c-9 -6 -12 -37 -10 -118 l3 -109 113 -3 113 -3 -3 118 -3
118 -100 3 c-55 1 -106 -2 -113 -6z"/>
<path d="M955 1721 c-3 -6 -5 -60 -4 -121 l1 -110 114 0 115 0 -3 118 -3 117
-107 3 c-66 2 -108 -1 -113 -7z"/>
<path d="M1248 1714 c-1 -9 -2 -63 0 -121 l3 -104 112 3 112 3 0 115 0 115
-112 3 c-98 3 -112 1 -115 -14z"/>
<path d="M654 1417 c-2 -7 -3 -60 -2 -118 l3 -104 110 0 110 0 3 118 3 117
-111 0 c-82 0 -112 -3 -116 -13z"/>
<path d="M954 1313 l1 -118 110 0 110 0 3 118 3 117 -114 0 -114 0 1 -117z"/>
<path d="M170 890 l0 -120 25 0 25 0 0 120 0 120 -25 0 -25 0 0 -120z"/>
<path d="M290 891 c0 -114 1 -121 20 -121 17 0 20 8 22 90 l3 90 50 -90 c47
-84 52 -90 83 -90 l32 0 0 120 c0 113 -1 120 -20 120 -18 0 -20 -7 -20 -87 0
-100 -2 -100 -64 9 -37 65 -45 73 -74 76 l-32 3 0 -120z"/>
<path d="M577 992 c-22 -24 -22 -75 1 -94 9 -9 32 -23 50 -32 48 -25 44 -57
-8 -58 -3 -1 -20 2 -38 6 -30 5 -33 4 -30 -17 3 -19 10 -22 60 -25 47 -2 61 1
78 18 23 23 26 59 8 81 -7 8 -32 28 -56 43 -24 15 -41 33 -39 39 2 7 23 12 46
13 44 1 71 21 48 36 -24 16 -103 9 -120 -10z"/>
<path d="M730 990 c0 -16 7 -20 35 -20 l35 0 0 -100 0 -100 25 0 25 0 0 100 0
100 35 0 c28 0 35 4 35 20 0 19 -7 20 -95 20 -88 0 -95 -1 -95 -20z"/>
<path d="M960 890 l0 -120 25 0 25 0 0 120 0 120 -25 0 -25 0 0 -120z"/>
<path d="M1050 991 c0 -15 8 -21 33 -23 l32 -3 0 -98 c0 -94 1 -97 23 -97 21
0 22 3 22 100 l0 100 35 0 c28 0 35 4 35 20 0 19 -7 20 -90 20 -82 0 -90 -2
-90 -19z"/>
<path d="M1272 909 c3 -92 5 -103 27 -120 36 -29 115 -26 146 6 23 22 25 32
25 120 0 95 0 95 -25 95 -25 0 -25 -1 -25 -84 0 -106 -4 -116 -44 -116 -49 0
-56 14 -56 112 l0 88 -26 0 -26 0 4 -101z"/>
<path d="M1510 990 c0 -16 7 -20 35 -20 l35 0 0 -100 0 -100 25 0 25 0 0 100
0 100 30 0 c23 0 30 4 30 20 0 19 -7 20 -90 20 -83 0 -90 -1 -90 -20z"/>
<path d="M1763 990 c-50 -46 -53 -135 -7 -190 23 -27 32 -30 81 -30 47 0 59 4
84 29 26 26 29 36 29 91 0 55 -3 65 -29 91 -25 25 -37 29 -83 29 -40 0 -60 -5
-75 -20z m125 -38 c15 -19 16 -96 2 -123 -12 -22 -81 -27 -98 -6 -16 20 -23
70 -14 102 14 51 78 67 110 27z"/>
<path d="M1463 708 c-11 -14 -83 -213 -83 -229 0 -5 11 -9 24 -9 19 0 26 7 31
30 6 28 9 30 55 30 46 0 49 -2 55 -30 5 -23 12 -30 31 -30 13 0 24 5 24 12 0
10 -39 125 -72 211 -11 29 -47 37 -65 15z m56 -120 c1 -14 -7 -18 -30 -18 -28
0 -31 2 -25 25 3 13 11 37 17 52 l11 28 13 -35 c8 -19 14 -43 14 -52z"/>
<path d="M342 593 c3 -114 4 -118 26 -121 20 -3 22 0 22 47 l0 51 46 0 c38 0
45 3 42 18 -2 12 -15 18 -46 20 -42 3 -43 4 -40 35 3 30 6 32 46 35 28 2 42 8
42 18 0 11 -16 14 -70 14 l-71 0 3 -117z"/>
<path d="M530 590 l0 -120 70 0 c63 0 70 2 70 20 0 17 -7 20 -45 20 -45 0 -45
0 -45 35 0 34 1 35 40 35 33 0 40 3 40 20 0 17 -7 20 -41 20 -38 0 -40 1 -37
28 3 25 7 27 46 27 33 0 42 4 42 18 0 14 -10 17 -70 17 l-70 0 0 -120z"/>
<path d="M730 590 l0 -120 51 0 c99 0 145 42 143 133 0 43 -5 54 -32 79 -29
25 -40 28 -97 28 l-65 0 0 -120z m130 64 c9 -9 15 -33 15 -60 0 -36 -5 -50
-24 -65 -14 -11 -36 -19 -50 -17 -25 3 -26 6 -29 72 -4 91 0 99 40 91 18 -4
40 -13 48 -21z"/>
<path d="M980 590 l0 -120 70 0 c63 0 70 2 70 20 0 17 -7 20 -45 20 -45 0 -45
0 -45 34 0 34 1 35 43 38 29 2 42 8 42 18 0 11 -13 16 -43 18 -40 3 -43 5 -40
30 3 24 8 27 46 30 28 2 42 8 42 18 0 11 -16 14 -70 14 l-70 0 0 -120z"/>
<path d="M1180 590 c0 -112 1 -120 19 -120 17 0 20 8 23 47 2 25 8 48 15 50 7
3 27 -18 45 -46 23 -36 40 -51 56 -51 28 0 28 3 -9 56 l-31 46 21 22 c12 13
21 36 21 54 0 43 -30 62 -102 62 l-58 0 0 -120z m84 80 c35 -13 35 -47 0 -60
-14 -6 -30 -8 -35 -4 -16 9 -10 74 7 74 1 0 14 -4 28 -10z"/>
<path d="M1640 590 l0 -120 75 0 c68 0 75 2 75 20 0 17 -7 20 -50 20 l-50 0 0
100 0 100 -25 0 -25 0 0 -120z"/>
<path d="M1251 277 c0 -54 3 -96 7 -93 5 3 7 18 5 33 -3 15 0 41 6 56 9 23 16
28 39 25 26 -3 27 -6 30 -60 4 -73 22 -76 22 -4 0 58 -20 91 -49 83 -44 -12
-45 -12 -52 23 -4 22 -7 0 -8 -63z"/>
<path d="M1422 357 c-8 -9 0 -12 30 -12 28 0 43 5 45 15 4 13 3 13 -6 1 -8
-12 -15 -13 -35 -3 -18 8 -27 8 -34 -1z"/>
<path d="M460 269 c0 -49 4 -88 9 -85 4 3 7 32 5 65 -2 33 0 62 5 65 4 3 19
-24 33 -61 13 -37 29 -68 35 -70 5 -2 23 31 39 74 l29 78 3 -77 c4 -109 22
-98 22 13 0 79 -2 90 -17 87 -10 -2 -26 -29 -41 -70 -14 -38 -28 -68 -32 -68
-5 0 -21 32 -36 70 -38 99 -54 93 -54 -21z"/>
<path d="M713 313 c-23 -9 -13 -18 19 -18 23 0 34 -5 36 -17 3 -13 -3 -18 -20
-18 -35 0 -70 -28 -66 -53 3 -19 10 -22 56 -23 l52 -2 0 53 c0 71 -28 99 -77
78z m57 -81 c0 -23 -19 -42 -42 -42 -27 0 -35 30 -13 46 27 20 55 18 55 -4z"/>
<path d="M875 309 c-4 -6 -13 -8 -21 -5 -11 4 -14 -8 -13 -62 l2 -67 6 53 c6
51 20 72 49 72 6 0 12 5 12 10 0 13 -27 13 -35 -1z"/>
<path d="M963 313 c-23 -9 -13 -18 19 -18 23 0 34 -5 36 -17 3 -13 -3 -18 -21
-18 -38 0 -71 -31 -62 -59 6 -19 12 -22 56 -19 l49 3 0 52 c0 69 -28 96 -77
76z m57 -81 c0 -23 -19 -42 -42 -42 -27 0 -35 30 -13 46 27 20 55 18 55 -4z"/>
<path d="M1127 309 c-9 -5 -22 -7 -27 -4 -6 4 -9 -19 -9 -62 l2 -68 6 52 c7
60 19 76 52 71 22 -3 24 -9 27 -60 4 -73 22 -76 22 -4 0 74 -27 102 -73 75z"/>
<path d="M1425 310 c-16 -6 -12 -9 20 -11 57 -6 59 -32 3 -45 -39 -8 -43 -12
-43 -39 0 -29 1 -30 48 -30 l47 -1 0 58 c0 46 -4 59 -19 68 -23 12 -29 12 -56
0z m60 -70 c11 -17 -15 -50 -39 -50 -38 0 -43 39 -6 53 24 9 38 8 45 -3z"/>
<path d="M1569 301 c-17 -14 -23 -28 -22 -55 1 -48 18 -66 59 -66 61 0 85 70
39 115 -29 30 -45 31 -76 6z m69 -13 c17 -17 15 -73 -2 -88 -42 -34 -92 22
-68 75 13 27 49 34 70 13z"/>
</g>
</svg>
